<svg xmlns="http://www.w3.org/2000/svg" width="1526.3" height="486.423" viewBox="0 0 1526.3 486.423">
  <g id="Grupo_435" data-name="Grupo 435" transform="translate(-139 -15.8)">
    <g id="Grupo_39" data-name="Grupo 39" transform="translate(683.3 142.239)">
      <text id="ALIMENTE" transform="translate(0 203)" fill="#fff" font-size="216" font-family="Almaq-Refined, Almaq" letter-spacing="0.08em"><tspan x="0" y="0">ALIM</tspan><tspan y="0" letter-spacing="0.07em">E</tspan><tspan y="0" letter-spacing="0.09em">NT</tspan><tspan y="0" letter-spacing="0.1em">E</tspan></text>
    </g>
    <g id="Grupo_192" data-name="Grupo 192" transform="translate(139 15.8)">
      <g id="Lc7BEb.tif" transform="translate(0)">
        <path id="Caminho_650" data-name="Caminho 650" d="M424.322,370.119c-24.734,55.9-76.07,109.734-153.357,115.525C64.394,501.118,27.5,281.314,36.126,253.8c5.093-16.313,17.1-10.186,30.639-6.138,32.36,9.677-16.415-102.985,77.4-220.247,69.364-86.759,14.976,57.224,106.9,90.033,35.721,12.751,35.32-42.264,37.637-49.4,20.172-62.171,69.337,59.687,89.373,156.28C392.573,294.271,463.052,282.586,424.322,370.119Z" transform="translate(-34.99 0)" fill="#f77e0b"/>
      </g>
      <g id="Grupo_191" data-name="Grupo 191" transform="translate(54.486 200.746)">
        <path id="Caminho_651" data-name="Caminho 651" d="M99.976,59.6a1.124,1.124,0,0,0-.071-.433C99.938,59.313,99.943,59.449,99.976,59.6Z" transform="translate(196.946 54.881)" fill="#fff"/>
        <path id="Caminho_652" data-name="Caminho 652" d="M99.445,57.983l.027.092Z" transform="translate(194.917 49.679)" fill="#fff"/>
        <path id="Caminho_653" data-name="Caminho 653" d="M341.979,152.567c1.591-3.053-6.495-18.521-5.2-24.945,1.624-8.178,7.978-15.154,12.4-21.914,7.767-11.847,25.329-35.18,14.072-50.28C348.809,36.073,348.576,69.045,346.168,78.7c-4.173,16.719-15.652,29.437-33.816,30.309a45.945,45.945,0,0,1-36.511-18.575,47.233,47.233,0,0,1-11.019-24.279c-.682-4.812,3.48-23.516-2.733-26.932C247.28,31.1,246.1,69.077,248.016,75.913c4.471,16.166,16.524,31.353,26.4,44.651-35.31,25.833-77.6,2.831-115.249-2.04-35.6-4.606-65.207,15.945-99.045,14.965-5.71-.168-11.138-8.086-14.651.579-2.257,5.569,5.234,12.513,9.3,15.111,12.876,8.232,32.945,1.142,46.313-2.43-9.829,11.279-1.781,24.9-6.733,37.085C90.1,194.3,80.436,197.646,75.3,208.73c-2.446,5.3-8.692,28.452-4.443,31.673,11.94,9.055,20.329-22.033,27.749-25.979-2.706,9.883-1.591,71.383,18.7,46,8.827-11.036-4.086-24.7,14.84-34.3,10.137-5.136,23.679-4.519,34.682-3.978,9.033.438,58.528,1.727,62.7,10.17,6.809,13.758-54.664,49.533-8.021,38.427,17.054-4.065,17.39-22.64,29.724-27.754,10.283-4.26,21.368,7.139,28.144,14.911,6.4,7.334,16,26.915,27.316,11,9.742-13.693-11.858-27.126-16.7-37.264-8.849-18.542.866-39.055,12-54.9,8.2-11.674,9.742-12.93,22.391-12.946C332.68,163.8,346.525,173.913,341.979,152.567ZM321,143.55c-26.406-14.386-62.745,67.572-57.056,82.938-36.582-20.475-113.918-29.156-151.257-8.043,1.515-9.856,4.011-22.845-11-19.874,9.52-11.068.487-28.068,8.486-40.424,4.265-6.587,39.78-21.53,26.347-28.344,34.065,1.678,65.11,20.816,99.754,17.861,10.283-.877,75.112-13.882,55.9-33.334a44.2,44.2,0,0,0,35.5,1.423,43.466,43.466,0,0,0-.444,32.16A36.717,36.717,0,0,0,321,143.55ZM335.7,123.633a.4.4,0,0,1-.146.087l.541-.541a2.774,2.774,0,0,1-.39.476Zm-3.588,35.239a1.132,1.132,0,0,0,.07.217c.011.049.011.238-.065-.217Z" transform="translate(-45.057 -38.091)" fill="#fff"/>
      </g>
    </g>
  </g>
</svg>
